<?xml version="1.0" encoding="UTF-8" standalone="no"?>
<svg xmlns:dc="http://purl.org/dc/elements/1.1/" xmlns:cc="http://creativecommons.org/ns#" xmlns:rdf="http://www.w3.org/1999/02/22-rdf-syntax-ns#" xmlns:svg="http://www.w3.org/2000/svg" xmlns="http://www.w3.org/2000/svg" xmlns:sodipodi="http://sodipodi.sourceforge.net/DTD/sodipodi-0.dtd" xmlns:inkscape="http://www.inkscape.org/namespaces/inkscape" inkscape:version="1.0 (4035a4fb49, 2020-05-01)" sodipodi:docname="track5.svg" id="svg16" version="1.1" width="16" viewBox="0 0 16 14" height="14">
  <metadata id="metadata22">
    <rdf:RDF>
      <cc:Work rdf:about="">
        <dc:format>image/svg+xml</dc:format>
        <dc:type rdf:resource="http://purl.org/dc/dcmitype/StillImage" />
        <dc:title />
      </cc:Work>
    </rdf:RDF>
  </metadata>
  <defs id="defs20" />
  <sodipodi:namedview inkscape:current-layer="svg16" inkscape:window-maximized="1" inkscape:window-y="0" inkscape:window-x="0" inkscape:cy="5.6334172" inkscape:cx="12.556412" inkscape:zoom="16" showgrid="false" id="namedview18" inkscape:window-height="1061" inkscape:window-width="1847" inkscape:pageshadow="2" inkscape:pageopacity="0" guidetolerance="10" gridtolerance="10" objecttolerance="10" borderopacity="1" bordercolor="#666666" pagecolor="#ffffff" inkscape:document-rotation="0" />
  <g id="g14" transform="matrix(.97816647 0 0 .97787626 .174622 -1015.234976)">
    <path id="path2" stroke-width="1.533709" stroke="#fff" fill="none" d="m7.8643285 1038.9709h-4.685811v5.4508c-1.4220966.4947-2.481982 1.88-2.481982 3.5589 0 2.0986 1.6839725 3.7693 3.6284723 3.7693 1.8429237 0 3.4382913-1.4835 3.612425-3.4323 1.6579709 0 1.3542269 0 2.4427552.011-.184078.3388-.280898.718-.281719 1.1036.000405 1.282 1.039543 2.3211 2.321509 2.3215 1.282663.0006 2.322888-1.0387 2.323293-2.3215-.000139-.3806-.09382-.7553-.272804-1.0912.06088.0004.832676 0 .832676 0l-.0019-3.4787-6.1443331-.6204z" />
    <path id="path4" d="m7.8643285 1038.9709h-4.685811v5.4508c-1.4220966.4947-2.481982 1.88-2.481982 3.5589 0 2.0986 1.6839725 3.7693 3.6284723 3.7693 1.8429237 0 3.4382913-1.4835 3.612425-3.4323 1.6579709 0 1.3542269 0 2.4427552.011-.184078.3388-.280898.718-.281719 1.1036.000405 1.282 1.039543 2.3211 2.321509 2.3215 1.282663.0006 2.322888-1.0387 2.323293-2.3215-.000139-.3806-.09382-.7553-.272804-1.0912.06088.0004.832676 0 .832676 0l-.0019-3.4787-6.1443331-.6204z" />
    <g id="g12" fill="#fff">
      <path id="path6" d="m4.1787991 1039.9017h2.9455706l.9878004 4.3827-3.933371-.028z" />
      <path id="path8" d="m4.3392722 1046.5044c.9287187 0 1.4799173.7049 1.4799173 1.4994 0 .7943-.5511986 1.4994-1.4799173 1.4994-.928717 0-1.4799176-.7051-1.4799176-1.4994 0-.7945.5512006-1.4994 1.4799176-1.4994z" />
      <path id="path10" d="m12.378968 1048.3337c.701936.0008 1.153715.5173 1.153623 1.0967-.000092.5792-.49896 1.1112-1.112613 1.1108-.613651-.0007-1.11633-.5293-1.110829-1.1108.0055-.5818.367884-1.0974 1.069819-1.0967z" />
    </g>
  </g>
  <g transform="matrix(1.5431954,0,0,1.5431954,-8.1273298,-0.47377651)" aria-label="5" id="text849" style="font-style:normal;font-variant:normal;font-weight:normal;font-stretch:normal;font-size:26.6667px;line-height:125%;font-family:'Andale Mono';-inkscape-font-specification:'Andale Mono, Normal';text-align:start;letter-spacing:0px;word-spacing:0px;writing-mode:lr-tb;text-anchor:start;fill:#000000;fill-opacity:1;stroke:none;stroke-width:0.648006px;stroke-linecap:butt;stroke-linejoin:miter;stroke-opacity:1">
    <path d="M 13.51676,2.5909535 Q 13.82275,2.5909535 14.086422,2.6853546 Q 14.350094,2.7797557 14.545406,2.9620474 Q 14.740719,3.1443392 14.851396,3.4177768 Q 14.962073,3.6879592 14.962073,4.0395219 Q 14.962073,4.4268919 14.841631,4.7361368 Q 14.721188,5.0421265 14.486813,5.2569704 Q 14.252438,5.468559 13.90413,5.5824914 Q 13.559078,5.6964237 13.109859,5.6964237 Q 12.930822,5.6964237 12.755041,5.6801477 Q 12.57926,5.6638716 12.416499,5.6313195 Q 12.256994,5.6020226 12.110509,5.5531945 Q 11.96728,5.5043663 11.850093,5.4392621 V 4.5701211 Q 11.964025,4.6352253 12.113765,4.6938191 Q 12.263504,4.7491576 12.42301,4.7914754 Q 12.58577,4.8305379 12.748531,4.8565796 Q 12.911291,4.879366 13.057776,4.879366 Q 13.493974,4.879366 13.721838,4.7003295 Q 13.949703,4.5180377 13.949703,4.1241573 Q 13.949703,3.7725947 13.725094,3.5903029 Q 13.503739,3.404756 13.038244,3.404756 Q 12.953609,3.404756 12.855953,3.4145216 Q 12.761551,3.4242872 12.66715,3.4405633 Q 12.576005,3.4568393 12.491369,3.4763706 Q 12.406734,3.4926466 12.344885,3.5121779 L 11.944494,3.297334 L 12.12353,0.87220267 H 14.636552 V 1.7250677 H 12.995927 L 12.917802,2.6593129 Q 13.021968,2.6365264 13.158687,2.61374 Q 13.298661,2.5909535 13.51676,2.5909535 Z" style="font-style:normal;font-variant:normal;font-weight:bold;font-stretch:normal;font-size:6.66667px;font-family:'Droid Sans';-inkscape-font-specification:'Droid Sans, Bold';font-variant-ligatures:normal;font-variant-caps:normal;font-variant-numeric:normal;font-variant-east-asian:normal;fill:#fd0000;fill-opacity:1;stroke:none;stroke-width:0.648006px;stroke-opacity:1" id="path1540" />
  </g>
</svg>
