<?xml version="1.0" encoding="UTF-8" standalone="no"?>
<svg xmlns:dc="http://purl.org/dc/elements/1.1/" xmlns:cc="http://creativecommons.org/ns#" xmlns:rdf="http://www.w3.org/1999/02/22-rdf-syntax-ns#" xmlns:svg="http://www.w3.org/2000/svg" xmlns="http://www.w3.org/2000/svg" xmlns:sodipodi="http://sodipodi.sourceforge.net/DTD/sodipodi-0.dtd" xmlns:inkscape="http://www.inkscape.org/namespaces/inkscape" height="14" viewBox="0 0 16 14" width="16" version="1.1" id="svg16" sodipodi:docname="track3.svg" inkscape:version="1.0 (4035a4fb49, 2020-05-01)">
  <metadata id="metadata22">
    <rdf:RDF>
      <cc:Work rdf:about="">
        <dc:format>image/svg+xml</dc:format>
        <dc:type rdf:resource="http://purl.org/dc/dcmitype/StillImage" />
        <dc:title />
      </cc:Work>
    </rdf:RDF>
  </metadata>
  <defs id="defs20" />
  <sodipodi:namedview inkscape:document-rotation="0" pagecolor="#ffffff" bordercolor="#666666" borderopacity="1" objecttolerance="10" gridtolerance="10" guidetolerance="10" inkscape:pageopacity="0" inkscape:pageshadow="2" inkscape:window-width="1847" inkscape:window-height="1061" id="namedview18" showgrid="false" inkscape:zoom="32" inkscape:cx="12.840902" inkscape:cy="5.4702642" inkscape:window-x="0" inkscape:window-y="0" inkscape:window-maximized="1" inkscape:current-layer="svg16" />
  <g transform="matrix(.97816647 0 0 .97787626 .174622 -1015.234976)" id="g14">
    <path d="m7.8643285 1038.9709h-4.685811v5.4508c-1.4220966.4947-2.481982 1.88-2.481982 3.5589 0 2.0986 1.6839725 3.7693 3.6284723 3.7693 1.8429237 0 3.4382913-1.4835 3.612425-3.4323 1.6579709 0 1.3542269 0 2.4427552.011-.184078.3388-.280898.718-.281719 1.1036.000405 1.282 1.039543 2.3211 2.321509 2.3215 1.282663.0006 2.322888-1.0387 2.323293-2.3215-.000139-.3806-.09382-.7553-.272804-1.0912.06088.0004.832676 0 .832676 0l-.0019-3.4787-6.1443331-.6204z" fill="none" stroke="#fff" stroke-width="1.533709" id="path2" />
    <path d="m7.8643285 1038.9709h-4.685811v5.4508c-1.4220966.4947-2.481982 1.88-2.481982 3.5589 0 2.0986 1.6839725 3.7693 3.6284723 3.7693 1.8429237 0 3.4382913-1.4835 3.612425-3.4323 1.6579709 0 1.3542269 0 2.4427552.011-.184078.3388-.280898.718-.281719 1.1036.000405 1.282 1.039543 2.3211 2.321509 2.3215 1.282663.0006 2.322888-1.0387 2.323293-2.3215-.000139-.3806-.09382-.7553-.272804-1.0912.06088.0004.832676 0 .832676 0l-.0019-3.4787-6.1443331-.6204z" id="path4" />
    <g fill="#fff" id="g12">
      <path d="m4.1787991 1039.9017h2.9455706l.9878004 4.3827-3.933371-.028z" id="path6" />
      <path d="m4.3392722 1046.5044c.9287187 0 1.4799173.7049 1.4799173 1.4994 0 .7943-.5511986 1.4994-1.4799173 1.4994-.928717 0-1.4799176-.7051-1.4799176-1.4994 0-.7945.5512006-1.4994 1.4799176-1.4994z" id="path8" />
      <path d="m12.378968 1048.3337c.701936.0008 1.153715.5173 1.153623 1.0967-.000092.5792-.49896 1.1112-1.112613 1.1108-.613651-.0007-1.11633-.5293-1.110829-1.1108.0055-.5818.367884-1.0974 1.069819-1.0967z" id="path10" />
    </g>
  </g>
  <g style="font-style:normal;font-variant:normal;font-weight:normal;font-stretch:normal;font-size:41.0488px;line-height:125%;font-family:'Andale Mono';-inkscape-font-specification:'Andale Mono, Normal';text-align:start;letter-spacing:0px;word-spacing:0px;writing-mode:lr-tb;text-anchor:start;fill:#000000;fill-opacity:1;stroke:none;stroke-width:1px;stroke-linecap:butt;stroke-linejoin:miter;stroke-opacity:1" id="text849" aria-label="3">
    <path id="path4417" style="font-style:normal;font-variant:normal;font-weight:bold;font-stretch:normal;font-size:10.2622px;font-family:'Droid Sans';-inkscape-font-specification:'Droid Sans, Bold';font-variant-ligatures:normal;font-variant-caps:normal;font-variant-numeric:normal;font-variant-east-asian:normal;fill:#fd0000;fill-opacity:1;stroke:none;stroke-width:1px;stroke-opacity:1" d="M 14.769397,2.5476114 Q 14.769397,2.9284352 14.644126,3.2340964 Q 14.523866,3.5347468 14.3084,3.7652455 Q 14.097944,3.9907333 13.807316,4.1460693 Q 13.521698,4.2963945 13.185971,4.376568 V 4.406633 Q 14.07289,4.5168715 14.528877,4.9478037 Q 14.984863,5.3737251 14.984863,6.1002969 Q 14.984863,6.5813376 14.809484,6.9922265 Q 14.639115,7.3981045 14.278335,7.6987549 Q 13.922565,7.9994053 13.376383,8.1697739 Q 12.835213,8.3351316 12.098619,8.3351316 Q 11.50734,8.3351316 10.986213,8.2349148 Q 10.465085,8.1397088 10.01411,7.9392752 V 6.6214243 Q 10.239597,6.7416845 10.490139,6.8318796 Q 10.740681,6.9220747 10.991223,6.9872156 Q 11.241765,7.0473457 11.482286,7.0774107 Q 11.727817,7.1074758 11.943283,7.1074758 Q 12.374215,7.1074758 12.659833,7.0273023 Q 12.945451,6.9471289 13.11582,6.8018145 Q 13.286188,6.6565002 13.35634,6.4560666 Q 13.431503,6.2506221 13.431503,6.0101018 Q 13.431503,5.784614 13.336297,5.6042238 Q 13.246101,5.4188227 13.035646,5.2935517 Q 12.830202,5.1632698 12.494475,5.0931181 Q 12.158749,5.0229663 11.667687,5.0229663 H 11.14656 V 3.935614 H 11.657665 Q 12.118662,3.935614 12.424324,3.8554406 Q 12.729985,3.7702563 12.910375,3.6299528 Q 13.095776,3.4846384 13.170939,3.2942265 Q 13.246101,3.1038146 13.246101,2.8883485 Q 13.246101,2.497503 13.00057,2.277026 Q 12.76005,2.056549 12.233912,2.056549 Q 11.993391,2.056549 11.782936,2.1066574 Q 11.577492,2.151755 11.397102,2.2269176 Q 11.221722,2.2970694 11.071397,2.3872645 Q 10.926083,2.4724488 10.805822,2.557633 L 10.024131,1.5254 Q 10.234587,1.370064 10.480118,1.2397821 Q 10.73066,1.1095003 11.021289,1.0142943 Q 11.311917,0.91407751 11.647644,0.85895827 Q 11.98337,0.80383903 12.364194,0.80383903 Q 12.905364,0.80383903 13.346318,0.92409919 Q 13.792283,1.0393485 14.107966,1.2648363 Q 14.423649,1.4853133 14.594017,1.8110179 Q 14.769397,2.1317116 14.769397,2.5476114 Z" />
  </g>
</svg>
